HIERARCHY
ROOT Hips
{
    OFFSET   0.000000   0.000000   0.000000
    CHANNELS 6 Xposition Yposition Zposition Zrotation Xrotation Yrotation
    JOINT Chest
    {
        OFFSET   0.000000   8.007240   0.000000
        CHANNELS 3 Zrotation Xrotation Yrotation
        JOINT Chest2
        {
            OFFSET   0.000000  22.077100   0.000000
            CHANNELS 3 Zrotation Xrotation Yrotation
            JOINT Neck
            {
                OFFSET   0.000000  23.254800   0.000000
                CHANNELS 3 Zrotation Xrotation Yrotation
                JOINT Head
                {
                    OFFSET   0.000000  14.370000   1.956600
                    CHANNELS 3 Zrotation Xrotation Yrotation
                    End Site
                    {
                        OFFSET   0.000000  19.566000   0.000000
                    }
                }
            }
            JOINT LeftCollar
            {
                OFFSET   3.911900  19.017000  -0.467064
                CHANNELS 3 Zrotation Xrotation Yrotation
                JOINT LeftShoulder
                {
                    OFFSET  10.383700   0.000000   0.000000
                    CHANNELS 3 Zrotation Xrotation Yrotation
                    JOINT LeftElbow
                    {
                        OFFSET  26.662100   0.001476   0.000517
                        CHANNELS 3 Zrotation Xrotation Yrotation
                        JOINT LeftWrist
                        {
                            OFFSET  28.869000  -0.000025  -0.000106
                            CHANNELS 3 Zrotation Xrotation Yrotation
                            JOINT LeftFinger0
                            {
                                OFFSET   2.044660  -2.323460   3.252850
                                CHANNELS 3 Zrotation Xrotation Yrotation
                                JOINT LeftFinger01
                                {
                                    OFFSET   3.088130   0.000000   0.000000
                                    CHANNELS 3 Zrotation Xrotation Yrotation
                                    JOINT LeftFinger02
                                    {
                                        OFFSET   2.639460   0.000000   0.000000
                                        CHANNELS 3 Zrotation Xrotation Yrotation
                                        End Site
                                        {
                                            OFFSET   2.582190   0.000000   0.000000
                                        }
                                    }
                                }
                            }
                            JOINT LeftFinger1
                            {
                                OFFSET   8.364480   0.000000   3.252850
                                CHANNELS 3 Zrotation Xrotation Yrotation
                                JOINT LeftFinger11
                                {
                                    OFFSET   4.646930   0.000000   0.000000
                                    CHANNELS 3 Zrotation Xrotation Yrotation
                                    JOINT LeftFinger12
                                    {
                                        OFFSET   2.323460   0.000000   0.000000
                                        CHANNELS 3 Zrotation Xrotation Yrotation
                                        End Site
                                        {
                                            OFFSET   2.273050   0.000000   0.000000
                                        }
                                    }
                                }
                            }
                            JOINT LeftFinger2
                            {
                                OFFSET   8.364490   0.000015   1.078090
                                CHANNELS 3 Zrotation Xrotation Yrotation
                                JOINT LeftFinger21
                                {
                                    OFFSET   5.111620   0.000000   0.000000
                                    CHANNELS 3 Zrotation Xrotation Yrotation
                                    JOINT LeftFinger22
                                    {
                                        OFFSET   2.788160   0.000016   0.000000
                                        CHANNELS 3 Zrotation Xrotation Yrotation
                                        End Site
                                        {
                                            OFFSET   2.727660   0.000000   0.000000
                                        }
                                    }
                                }
                            }
                            JOINT LeftFinger3
                            {
                                OFFSET   7.899780   0.000017  -1.078090
                                CHANNELS 3 Zrotation Xrotation Yrotation
                                JOINT LeftFinger31
                                {
                                    OFFSET   4.646930   0.000000   0.000000
                                    CHANNELS 3 Zrotation Xrotation Yrotation
                                    JOINT LeftFinger32
                                    {
                                        OFFSET   2.323470   0.000000   0.000000
                                        CHANNELS 3 Zrotation Xrotation Yrotation
                                        End Site
                                        {
                                            OFFSET   2.273050   0.000000   0.000000
                                        }
                                    }
                                }
                            }
                            JOINT LeftFinger4
                            {
                                OFFSET   7.435090   0.000000  -3.252850
                                CHANNELS 3 Zrotation Xrotation Yrotation
                                JOINT LeftFinger41
                                {
                                    OFFSET   3.717550   0.000000   0.000000
                                    CHANNELS 3 Zrotation Xrotation Yrotation
                                    JOINT LeftFinger42
                                    {
                                        OFFSET   1.858770   0.000000   0.000000
                                        CHANNELS 3 Zrotation Xrotation Yrotation
                                        End Site
                                        {
                                            OFFSET   1.818440   0.000000   0.000000
                                        }
                                    }
                                }
                            }
                        }
                    }
                }
            }
            JOINT RightCollar
            {
                OFFSET  -3.911900  19.017000  -0.467063
                CHANNELS 3 Zrotation Xrotation Yrotation
                JOINT RightShoulder
                {
                    OFFSET -10.383700   0.000019   0.000000
                    CHANNELS 3 Zrotation Xrotation Yrotation
                    JOINT RightElbow
                    {
                        OFFSET -26.662100   0.001175   0.000102
                        CHANNELS 3 Zrotation Xrotation Yrotation
                        JOINT RightWrist
                        {
                            OFFSET -28.869000   0.000016  -0.000079
                            CHANNELS 3 Zrotation Xrotation Yrotation
                            JOINT RightFinger0
                            {
                                OFFSET  -2.044660  -2.323490   3.252850
                                CHANNELS 3 Zrotation Xrotation Yrotation
                                JOINT RightFinger01
                                {
                                    OFFSET  -3.088140   0.000000   0.000000
                                    CHANNELS 3 Zrotation Xrotation Yrotation
                                    JOINT RightFinger02
                                    {
                                        OFFSET  -2.639460   0.000000   0.000000
                                        CHANNELS 3 Zrotation Xrotation Yrotation
                                        End Site
                                        {
                                            OFFSET  -2.582190   0.000000   0.000000
                                        }
                                    }
                                }
                            }
                            JOINT RightFinger1
                            {
                                OFFSET  -8.364480   0.000000   3.252850
                                CHANNELS 3 Zrotation Xrotation Yrotation
                                JOINT RightFinger11
                                {
                                    OFFSET  -4.646930   0.000000   0.000000
                                    CHANNELS 3 Zrotation Xrotation Yrotation
                                    JOINT RightFinger12
                                    {
                                        OFFSET  -2.323470   0.000000   0.000000
                                        CHANNELS 3 Zrotation Xrotation Yrotation
                                        End Site
                                        {
                                            OFFSET  -2.273050   0.000000   0.000000
                                        }
                                    }
                                }
                            }
                            JOINT RightFinger2
                            {
                                OFFSET  -8.364480   0.000000   1.078090
                                CHANNELS 3 Zrotation Xrotation Yrotation
                                JOINT RightFinger21
                                {
                                    OFFSET  -5.111620   0.000000   0.000000
                                    CHANNELS 3 Zrotation Xrotation Yrotation
                                    JOINT RightFinger22
                                    {
                                        OFFSET  -2.788160   0.000000   0.000000
                                        CHANNELS 3 Zrotation Xrotation Yrotation
                                        End Site
                                        {
                                            OFFSET  -2.727660   0.000000   0.000000
                                        }
                                    }
                                }
                            }
                            JOINT RightFinger3
                            {
                                OFFSET  -7.899780   0.000000  -1.078090
                                CHANNELS 3 Zrotation Xrotation Yrotation
                                JOINT RightFinger31
                                {
                                    OFFSET  -4.646930   0.000000   0.000000
                                    CHANNELS 3 Zrotation Xrotation Yrotation
                                    JOINT RightFinger32
                                    {
                                        OFFSET  -2.323470   0.000000   0.000000
                                        CHANNELS 3 Zrotation Xrotation Yrotation
                                        End Site
                                        {
                                            OFFSET  -2.273050   0.000000   0.000000
                                        }
                                    }
                                }
                            }
                            JOINT RightFinger4
                            {
                                OFFSET  -7.435090   0.000000  -3.252850
                                CHANNELS 3 Zrotation Xrotation Yrotation
                                JOINT RightFinger41
                                {
                                    OFFSET  -3.717550   0.000000   0.000000
                                    CHANNELS 3 Zrotation Xrotation Yrotation
                                    JOINT RightFinger42
                                    {
                                        OFFSET  -1.858770   0.000000   0.000000
                                        CHANNELS 3 Zrotation Xrotation Yrotation
                                        End Site
                                        {
                                            OFFSET  -1.818440   0.000000   0.000000
                                        }
                                    }
                                }
                            }
                        }
                    }
                }
            }
        }
    }
    JOINT LeftHip
    {
        OFFSET   9.783040   0.000000   0.000000
        CHANNELS 3 Zrotation Xrotation Yrotation
        JOINT LeftKnee
        {
            OFFSET   0.000032 -41.789100  -0.002222
            CHANNELS 3 Zrotation Xrotation Yrotation
            JOINT LeftAnkle
            {
                OFFSET   0.000087 -41.133200  -0.000135
                CHANNELS 3 Zrotation Xrotation Yrotation
                JOINT LeftToe
                {
                    OFFSET   0.000000  -6.358960  14.674500
                    CHANNELS 3 Zrotation Xrotation Yrotation
                    End Site
                    {
                        OFFSET   0.000000   0.000000   3.913200
                    }
                }
            }
        }
    }
    JOINT RightHip
    {
        OFFSET  -9.783040   0.000000   0.000000
        CHANNELS 3 Zrotation Xrotation Yrotation
        JOINT RightKnee
        {
            OFFSET   0.000047 -41.789100  -0.000896
            CHANNELS 3 Zrotation Xrotation Yrotation
            JOINT RightAnkle
            {
                OFFSET  -0.000117 -41.133300  -0.000248
                CHANNELS 3 Zrotation Xrotation Yrotation
                JOINT RightToe
                {
                    OFFSET   0.000000  -6.358970  14.674500
                    CHANNELS 3 Zrotation Xrotation Yrotation
                    End Site
                    {
                        OFFSET   0.000000   0.000000   3.913200
                    }
                }
            }
        }
    }
}
MOTION
Frames: 5
Frame Time:   0.016667
 -3.399060  89.346200  -0.224516   0.000762  -6.326910   1.169180   1.218950   4.913900  -1.717580   2.599770   9.787640  -3.559740  -0.498552  -0.779511  -0.008152  -0.819799  -1.580340   3.431930  -9.790610   1.660610   1.447560 -46.481800  -0.973255 -62.356400  27.819500 -18.093500 -82.449400  17.876100  54.493800 -12.302000  58.846200  53.996300 -108.136000 -31.335300  -0.003048  -0.000990 -10.667700  -0.001366  -0.001758 -12.928700   0.186571  -0.825286 -10.580300  -0.000597   0.013740  -7.415380   0.000830   0.008236 -15.059700  -0.624625   2.442750 -14.848300  -0.011246  -0.007472  -9.894410  -0.003059  -0.006810 -15.317100  -0.800462   2.843700 -15.044500  -0.014017  -0.022432 -10.028000  -0.003778  -0.015333 -19.090400  -2.283000   6.286130 -28.819900  -0.041111  -0.057828 -19.193900  -0.008339  -0.034675  11.032100  -0.659688   7.106340  69.270300   9.183760  -1.610560  -2.427560   1.979520  13.921600 -14.286500 -16.297800  -4.384260 -32.006400  24.340700  63.276800  34.831600   0.000701  -0.000411  12.421000  -0.000335  -0.000799  34.170200   9.626020  13.839800  28.912000   0.003032  -0.001980  20.238400   0.004721  -0.000967  21.344300   5.028810   9.214750  42.542200  -0.001219   0.004735  28.333200  -0.002484   0.000292  29.293500   3.785460   6.712110  44.273400  -0.003832  -0.002917  29.486100  -0.002743   0.002657  39.385500  -0.897490  -1.092970  59.091200  -0.002762  -0.001011  39.354700  -0.002548   0.001386   2.462970   9.614740   2.107730  -0.008945   0.156173  11.904400  -2.544540  -3.035490  -0.336997   0.000000   0.000000   0.000000   0.405627  10.890300  -6.462090   1.787660   0.572947  -9.725960  -2.310640  -4.939350  -1.782970  -0.000000   0.000000   0.000000
 -3.398600  89.345900  -0.224680   0.002055  -6.327440   1.172570   1.214440   4.903500  -1.697500   2.588940   9.767460  -3.518670  -0.489856  -0.756842  -0.008157  -0.805163  -1.534410   3.406340  -9.793340   1.670620   1.399780 -46.547400  -1.034010 -62.375300  28.116100 -17.798600 -82.478500  16.177800  55.127100 -10.820600  58.837700  53.964800 -108.129000 -31.311600   0.006849   0.004211 -10.655800   0.003050  -0.001178 -11.669300   0.173803  -0.731829  -9.553720   0.013594   0.022724  -6.687610   0.007955   0.017232 -13.253700  -0.412630   1.933930 -14.044200  -0.011798  -0.009629  -9.353370  -0.001705  -0.008473 -13.287300  -0.432462   1.938250 -14.139600  -0.031350  -0.033501  -9.416810  -0.008451  -0.027987 -18.637700  -2.164660   6.021830 -28.117500  -0.076496  -0.106544 -18.726100  -0.012603  -0.081386  11.037300  -0.639320   7.090640  69.278500   9.189170  -1.575610  -2.457280   1.999580  13.997500 -14.335500 -16.329300  -4.420400 -32.011200  24.361800  63.291700  34.831800   0.001102  -0.000624  12.420700  -0.000222  -0.000642  34.204900   9.581400  13.759700  28.934000   0.002738  -0.001940  20.253800   0.004799  -0.000850  21.742400   5.027400   9.208720  42.592500  -0.001350   0.004748  28.366600  -0.002449   0.000268  29.326100   3.782910   6.698330  44.321400  -0.004112  -0.002851  29.518100  -0.003076   0.002636  39.422600  -0.908057  -1.104370  59.147000  -0.002598  -0.000577  39.391900  -0.002393   0.001532   2.463680   9.605650   2.102740  -0.007354   0.176734  11.900300  -2.545820  -3.049060  -0.334161  -0.000000   0.000000   0.000000   0.406569  10.832800  -6.462160   1.779500   0.621048  -9.734650  -2.310000  -4.931760  -1.776060  -0.000000   0.000000   0.000000
 -3.398360  89.345600  -0.223103   0.004093  -6.329410   1.182510   1.212050   4.896170  -1.684140   2.583120   9.753190  -3.491350  -0.490071  -0.728437  -0.008150  -0.805098  -1.476710   3.407580  -9.792610   1.659990   1.362230 -46.392700  -0.962004 -62.471900  28.308600 -17.850400 -82.246000  15.827000  54.851100 -10.808400  58.860800  54.000000 -108.148000 -31.508100   0.026046   0.016460 -10.762100   0.011587  -0.000547 -11.854700   0.260486  -0.665014  -9.706970   0.030217   0.077765  -6.779060   0.003322   0.058221 -14.777900  -0.456909   1.974340 -12.121900   0.067938   0.169095  -8.023280   0.003571   0.122489 -14.662500  -0.228855   1.452620 -11.850800   0.142613   0.249778  -7.815980   0.029320   0.190868 -18.183400  -1.359450   4.990790 -27.344700  -0.028468   0.173079 -18.212200  -0.093561   0.108480  11.039900  -0.628631   7.090010  69.278900   9.220480  -1.532520  -2.465480   1.995910  14.051700 -14.359300 -16.325900  -4.406490 -32.010900  24.362600  63.288500  34.831200   0.001479  -0.000905  12.418500  -0.000117  -0.000484  34.212300   9.622080  13.814800  28.946300   0.002444  -0.001897  20.262400   0.004872  -0.000728  22.087300   5.026810   9.203380  42.639100  -0.001484   0.004762  28.397600  -0.002419   0.000248  29.350100   3.781450   6.688170  44.356800  -0.004399  -0.002767  29.541700  -0.003417   0.002612  39.453000  -0.916741  -1.113740  59.192900  -0.002334   0.000002  39.422500  -0.002101   0.001676   2.463840   9.609240   2.099760  -0.006190   0.171092  11.892400  -2.544930  -3.050120  -0.333375  -0.000000   0.000000   0.000000   0.404879  10.791100  -6.460340   1.774960   0.682273  -9.743710  -2.306210  -4.947440  -1.778650  -0.000000   0.000000   0.000000
 -3.397600  89.345300  -0.218595   0.006713  -6.332920   1.197340   1.211190   4.889920  -1.678210   2.580270   9.740880  -3.479190  -0.491602  -0.698630  -0.008143  -0.807975  -1.416210   3.416760  -9.791780   1.649240   1.339250 -46.218700  -0.876504 -62.556100  28.152700 -17.995500 -82.029400  15.931500  54.335200 -11.105500  59.023400  54.246300 -108.284000 -32.528600   0.039425   0.025218 -11.270000   0.017533   0.000132 -13.158500   0.347178  -0.454387 -10.779500   0.039699   0.125105  -7.419170  -0.002958   0.091499 -18.840800  -0.766797   2.257330 -10.990700   0.147672   0.347818  -7.230800   0.007537   0.253451 -18.626000  -0.173816   1.302490 -10.472800   0.316564   0.533063  -6.837860   0.067900   0.409723 -18.068700  -0.731140   3.840110 -27.123600   0.019560   0.512634 -18.064500  -0.194238   0.298346  11.041500  -0.622509   7.089910  69.275500   9.273720  -1.488080  -2.465430   1.985180  14.095400 -14.376800 -16.316500  -4.385970 -32.019500  24.364500  63.278900  34.826800   0.001833  -0.001200  12.413400   0.000000  -0.000325  34.202600   9.682010  13.898300  28.951700   0.002148  -0.001854  20.266200   0.004945  -0.000603  22.430600   5.026550   9.199160  42.664600  -0.001624   0.004777  28.414600  -0.002394   0.000232  29.363100   3.780450   6.682700  44.375900  -0.004693  -0.002679  29.554400  -0.003765   0.002588  39.468500  -0.921151  -1.118500  59.216200  -0.002129   0.000558  39.438000  -0.001826   0.001820   2.463090   9.616940   2.098620  -0.004035   0.159360  11.882800  -2.542570  -3.050270  -0.333263   0.000000   0.000000  -0.000000   0.403733  10.769200  -6.457050   1.773020   0.721620  -9.754200  -2.302750  -4.963120  -1.785110  -0.000000   0.000000   0.000000
 -3.395210  89.345100  -0.210809   0.009750  -6.338130   1.215670   1.211220   4.883700  -1.679420   2.580140   9.728430  -3.481470  -0.502990  -0.670931  -0.008166  -0.826313  -1.360260   3.446100  -9.786350   1.649130   1.335050 -46.180600  -0.859774 -62.557100  27.786300 -18.137400 -82.000200  17.647700  53.831800 -12.750700  59.639300  55.278100 -108.793000 -35.046300   0.038060   0.025169 -12.467500   0.017213   0.000801 -21.845300  -0.301184   0.409721 -17.875600   0.023358   0.096946 -12.745900  -0.004917   0.068078 -25.650300  -1.683630   3.249170 -19.732000   0.147562   0.343978 -13.177900   0.007961   0.249417 -25.554200  -1.401730   2.605820 -18.257300   0.313917   0.526711 -12.319100   0.068845   0.403028 -24.522500  -1.174690   3.366100 -36.830100  -0.002240   0.582555 -24.529100  -0.221509   0.295914  11.043500  -0.619423   7.094890  69.259300   9.344420  -1.448200  -2.458570   1.959440  14.138100 -14.394600 -16.295900  -4.373430 -32.044700  24.375700  63.250000  34.809400   0.002166  -0.001419  12.404100   0.000155  -0.000158  34.182800   9.718460  13.957000  28.944900   0.001845  -0.001816  20.261400   0.005020  -0.000474  22.721600   5.026170   9.197410  42.646500  -0.001774   0.004792  28.402500  -0.002374   0.000217  29.364500   3.779580   6.682160  44.377800  -0.004995  -0.002587  29.555600  -0.004123   0.002562  39.464100  -0.919900  -1.117160  59.209600  -0.001977   0.001098  39.433600  -0.001567   0.001966   2.458550   9.629850   2.098670  -0.003516   0.140650  11.873000  -2.537640  -3.044860  -0.337123   0.000000   0.000000  -0.000000   0.405635  10.786700  -6.451310   1.770980   0.691112  -9.766780  -2.304420  -4.948790  -1.795240  -0.000000   0.000000   0.000000
